<svg width="134" height="15" viewBox="0 0 134 15" fill="none" xmlns="http://www.w3.org/2000/svg">
<path d="M5.606 4.46C6.794 4.46 7.736 4.808 8.432 5.504C9.14 6.188 9.494 7.19 9.494 8.51V14H8.216V8.636C8.216 7.652 7.97 6.902 7.478 6.386C6.986 5.87 6.284 5.612 5.372 5.612C4.352 5.612 3.542 5.918 2.942 6.53C2.354 7.13 2.06 7.964 2.06 9.032V14H0.782V4.532H2.006V6.278C2.354 5.702 2.834 5.258 3.446 4.946C4.07 4.622 4.79 4.46 5.606 4.46ZM21.2428 9.662H13.3228C13.3948 10.646 13.7728 11.444 14.4568 12.056C15.1408 12.656 16.0048 12.956 17.0488 12.956C17.6368 12.956 18.1768 12.854 18.6688 12.65C19.1608 12.434 19.5868 12.122 19.9468 11.714L20.6668 12.542C20.2468 13.046 19.7188 13.43 19.0828 13.694C18.4588 13.958 17.7688 14.09 17.0128 14.09C16.0408 14.09 15.1768 13.886 14.4208 13.478C13.6768 13.058 13.0948 12.482 12.6748 11.75C12.2548 11.018 12.0448 10.19 12.0448 9.266C12.0448 8.342 12.2428 7.514 12.6388 6.782C13.0468 6.05 13.5988 5.48 14.2948 5.072C15.0028 4.664 15.7948 4.46 16.6708 4.46C17.5468 4.46 18.3328 4.664 19.0288 5.072C19.7248 5.48 20.2708 6.05 20.6668 6.782C21.0628 7.502 21.2608 8.33 21.2608 9.266L21.2428 9.662ZM16.6708 5.558C15.7588 5.558 14.9908 5.852 14.3668 6.44C13.7548 7.016 13.4068 7.772 13.3228 8.708H20.0368C19.9528 7.772 19.5988 7.016 18.9748 6.44C18.3628 5.852 17.5948 5.558 16.6708 5.558ZM37.5823 4.532L34.0003 14H32.7943L29.8063 6.242L26.8183 14H25.6123L22.0483 4.532H23.2723L26.2423 12.578L29.2843 4.532H30.3823L33.4063 12.578L36.4123 4.532H37.5823ZM49.0955 4.46C49.9835 4.46 50.7875 4.664 51.5075 5.072C52.2275 5.468 52.7915 6.032 53.1995 6.764C53.6075 7.496 53.8115 8.33 53.8115 9.266C53.8115 10.202 53.6075 11.036 53.1995 11.768C52.7915 12.5 52.2275 13.07 51.5075 13.478C50.7875 13.886 49.9835 14.09 49.0955 14.09C48.3035 14.09 47.5895 13.922 46.9535 13.586C46.3295 13.25 45.8255 12.764 45.4415 12.128V14H44.2175V0.643999H45.4955V6.332C45.8915 5.72 46.3955 5.258 47.0075 4.946C47.6315 4.622 48.3275 4.46 49.0955 4.46ZM49.0055 12.956C49.6655 12.956 50.2655 12.806 50.8055 12.506C51.3455 12.194 51.7655 11.756 52.0655 11.192C52.3775 10.628 52.5335 9.986 52.5335 9.266C52.5335 8.546 52.3775 7.904 52.0655 7.34C51.7655 6.776 51.3455 6.344 50.8055 6.044C50.2655 5.732 49.6655 5.576 49.0055 5.576C48.3335 5.576 47.7275 5.732 47.1875 6.044C46.6595 6.344 46.2395 6.776 45.9275 7.34C45.6275 7.904 45.4775 8.546 45.4775 9.266C45.4775 9.986 45.6275 10.628 45.9275 11.192C46.2395 11.756 46.6595 12.194 47.1875 12.506C47.7275 12.806 48.3335 12.956 49.0055 12.956ZM59.676 4.46C60.912 4.46 61.86 4.772 62.52 5.396C63.18 6.008 63.51 6.92 63.51 8.132V14H62.286V12.524C61.998 13.016 61.572 13.4 61.008 13.676C60.456 13.952 59.796 14.09 59.028 14.09C57.972 14.09 57.132 13.838 56.508 13.334C55.884 12.83 55.572 12.164 55.572 11.336C55.572 10.532 55.86 9.884 56.436 9.392C57.024 8.9 57.954 8.654 59.226 8.654H62.232V8.078C62.232 7.262 62.004 6.644 61.548 6.224C61.092 5.792 60.426 5.576 59.55 5.576C58.95 5.576 58.374 5.678 57.822 5.882C57.27 6.074 56.796 6.344 56.4 6.692L55.824 5.738C56.304 5.33 56.88 5.018 57.552 4.802C58.224 4.574 58.932 4.46 59.676 4.46ZM59.226 13.082C59.946 13.082 60.564 12.92 61.08 12.596C61.596 12.26 61.98 11.78 62.232 11.156V9.608H59.262C57.642 9.608 56.832 10.172 56.832 11.3C56.832 11.852 57.042 12.29 57.462 12.614C57.882 12.926 58.47 13.082 59.226 13.082ZM69.5192 14.09C68.7512 14.09 68.0132 13.982 67.3052 13.766C66.6092 13.538 66.0632 13.256 65.6672 12.92L66.2432 11.912C66.6392 12.224 67.1372 12.482 67.7372 12.686C68.3372 12.878 68.9612 12.974 69.6092 12.974C70.4732 12.974 71.1092 12.842 71.5172 12.578C71.9372 12.302 72.1472 11.918 72.1472 11.426C72.1472 11.078 72.0332 10.808 71.8052 10.616C71.5772 10.412 71.2892 10.262 70.9412 10.166C70.5932 10.058 70.1312 9.956 69.5552 9.86C68.7872 9.716 68.1692 9.572 67.7012 9.428C67.2332 9.272 66.8312 9.014 66.4952 8.654C66.1712 8.294 66.0092 7.796 66.0092 7.16C66.0092 6.368 66.3392 5.72 66.9992 5.216C67.6592 4.712 68.5772 4.46 69.7532 4.46C70.3652 4.46 70.9772 4.544 71.5892 4.712C72.2012 4.868 72.7052 5.078 73.1012 5.342L72.5432 6.368C71.7632 5.828 70.8332 5.558 69.7532 5.558C68.9372 5.558 68.3192 5.702 67.8992 5.99C67.4912 6.278 67.2872 6.656 67.2872 7.124C67.2872 7.484 67.4012 7.772 67.6292 7.988C67.8692 8.204 68.1632 8.366 68.5112 8.474C68.8592 8.57 69.3392 8.672 69.9512 8.78C70.7072 8.924 71.3132 9.068 71.7692 9.212C72.2252 9.356 72.6152 9.602 72.9392 9.95C73.2632 10.298 73.4252 10.778 73.4252 11.39C73.4252 12.218 73.0772 12.878 72.3812 13.37C71.6972 13.85 70.7432 14.09 69.5192 14.09ZM79.2979 9.248L77.0659 11.3V14H75.7879V0.643999H77.0659V9.698L82.7179 4.532H84.3019L80.2519 8.402L84.6799 14H83.1139L79.2979 9.248ZM94.4557 9.662H86.5357C86.6077 10.646 86.9857 11.444 87.6697 12.056C88.3537 12.656 89.2177 12.956 90.2617 12.956C90.8497 12.956 91.3897 12.854 91.8817 12.65C92.3737 12.434 92.7997 12.122 93.1597 11.714L93.8797 12.542C93.4597 13.046 92.9317 13.43 92.2957 13.694C91.6717 13.958 90.9817 14.09 90.2257 14.09C89.2537 14.09 88.3897 13.886 87.6337 13.478C86.8897 13.058 86.3077 12.482 85.8877 11.75C85.4677 11.018 85.2577 10.19 85.2577 9.266C85.2577 8.342 85.4557 7.514 85.8517 6.782C86.2597 6.05 86.8117 5.48 87.5077 5.072C88.2157 4.664 89.0077 4.46 89.8837 4.46C90.7597 4.46 91.5457 4.664 92.2417 5.072C92.9377 5.48 93.4837 6.05 93.8797 6.782C94.2757 7.502 94.4737 8.33 94.4737 9.266L94.4557 9.662ZM89.8837 5.558C88.9717 5.558 88.2037 5.852 87.5797 6.44C86.9677 7.016 86.6197 7.772 86.5357 8.708H93.2497C93.1657 7.772 92.8117 7.016 92.1877 6.44C91.5757 5.852 90.8077 5.558 89.8837 5.558ZM102.061 13.424C101.821 13.64 101.521 13.808 101.161 13.928C100.813 14.036 100.447 14.09 100.063 14.09C99.175 14.09 98.491 13.85 98.011 13.37C97.531 12.89 97.291 12.212 97.291 11.336V5.612H95.599V4.532H97.291V2.462H98.569V4.532H101.449V5.612H98.569V11.264C98.569 11.828 98.707 12.26 98.983 12.56C99.271 12.848 99.679 12.992 100.207 12.992C100.471 12.992 100.723 12.95 100.963 12.866C101.215 12.782 101.431 12.662 101.611 12.506L102.061 13.424ZM109.265 4.46C110.153 4.46 110.957 4.664 111.677 5.072C112.397 5.468 112.961 6.032 113.369 6.764C113.777 7.496 113.981 8.33 113.981 9.266C113.981 10.202 113.777 11.036 113.369 11.768C112.961 12.5 112.397 13.07 111.677 13.478C110.957 13.886 110.153 14.09 109.265 14.09C108.473 14.09 107.759 13.922 107.123 13.586C106.499 13.25 105.995 12.764 105.611 12.128V14H104.387V0.643999H105.665V6.332C106.061 5.72 106.565 5.258 107.177 4.946C107.801 4.622 108.497 4.46 109.265 4.46ZM109.175 12.956C109.835 12.956 110.435 12.806 110.975 12.506C111.515 12.194 111.935 11.756 112.235 11.192C112.547 10.628 112.703 9.986 112.703 9.266C112.703 8.546 112.547 7.904 112.235 7.34C111.935 6.776 111.515 6.344 110.975 6.044C110.435 5.732 109.835 5.576 109.175 5.576C108.503 5.576 107.897 5.732 107.357 6.044C106.829 6.344 106.409 6.776 106.097 7.34C105.797 7.904 105.647 8.546 105.647 9.266C105.647 9.986 105.797 10.628 106.097 11.192C106.409 11.756 106.829 12.194 107.357 12.506C107.897 12.806 108.503 12.956 109.175 12.956ZM119.846 4.46C121.082 4.46 122.03 4.772 122.69 5.396C123.35 6.008 123.68 6.92 123.68 8.132V14H122.456V12.524C122.168 13.016 121.742 13.4 121.178 13.676C120.626 13.952 119.966 14.09 119.198 14.09C118.142 14.09 117.302 13.838 116.678 13.334C116.054 12.83 115.742 12.164 115.742 11.336C115.742 10.532 116.03 9.884 116.606 9.392C117.194 8.9 118.124 8.654 119.396 8.654H122.402V8.078C122.402 7.262 122.174 6.644 121.718 6.224C121.262 5.792 120.596 5.576 119.72 5.576C119.12 5.576 118.544 5.678 117.992 5.882C117.44 6.074 116.966 6.344 116.57 6.692L115.994 5.738C116.474 5.33 117.05 5.018 117.722 4.802C118.394 4.574 119.102 4.46 119.846 4.46ZM119.396 13.082C120.116 13.082 120.734 12.92 121.25 12.596C121.766 12.26 122.15 11.78 122.402 11.156V9.608H119.432C117.812 9.608 117.002 10.172 117.002 11.3C117.002 11.852 117.212 12.29 117.632 12.614C118.052 12.926 118.64 13.082 119.396 13.082ZM127.151 0.643999H128.429V14H127.151V0.643999ZM131.985 0.643999H133.263V14H131.985V0.643999Z" fill="white"/>
<path d="M5.606 4.46C6.794 4.46 7.736 4.808 8.432 5.504C9.14 6.188 9.494 7.19 9.494 8.51V14H8.216V8.636C8.216 7.652 7.97 6.902 7.478 6.386C6.986 5.87 6.284 5.612 5.372 5.612C4.352 5.612 3.542 5.918 2.942 6.53C2.354 7.13 2.06 7.964 2.06 9.032V14H0.782V4.532H2.006V6.278C2.354 5.702 2.834 5.258 3.446 4.946C4.07 4.622 4.79 4.46 5.606 4.46ZM21.2428 9.662H13.3228C13.3948 10.646 13.7728 11.444 14.4568 12.056C15.1408 12.656 16.0048 12.956 17.0488 12.956C17.6368 12.956 18.1768 12.854 18.6688 12.65C19.1608 12.434 19.5868 12.122 19.9468 11.714L20.6668 12.542C20.2468 13.046 19.7188 13.43 19.0828 13.694C18.4588 13.958 17.7688 14.09 17.0128 14.09C16.0408 14.09 15.1768 13.886 14.4208 13.478C13.6768 13.058 13.0948 12.482 12.6748 11.75C12.2548 11.018 12.0448 10.19 12.0448 9.266C12.0448 8.342 12.2428 7.514 12.6388 6.782C13.0468 6.05 13.5988 5.48 14.2948 5.072C15.0028 4.664 15.7948 4.46 16.6708 4.46C17.5468 4.46 18.3328 4.664 19.0288 5.072C19.7248 5.48 20.2708 6.05 20.6668 6.782C21.0628 7.502 21.2608 8.33 21.2608 9.266L21.2428 9.662ZM16.6708 5.558C15.7588 5.558 14.9908 5.852 14.3668 6.44C13.7548 7.016 13.4068 7.772 13.3228 8.708H20.0368C19.9528 7.772 19.5988 7.016 18.9748 6.44C18.3628 5.852 17.5948 5.558 16.6708 5.558ZM37.5823 4.532L34.0003 14H32.7943L29.8063 6.242L26.8183 14H25.6123L22.0483 4.532H23.2723L26.2423 12.578L29.2843 4.532H30.3823L33.4063 12.578L36.4123 4.532H37.5823ZM49.0955 4.46C49.9835 4.46 50.7875 4.664 51.5075 5.072C52.2275 5.468 52.7915 6.032 53.1995 6.764C53.6075 7.496 53.8115 8.33 53.8115 9.266C53.8115 10.202 53.6075 11.036 53.1995 11.768C52.7915 12.5 52.2275 13.07 51.5075 13.478C50.7875 13.886 49.9835 14.09 49.0955 14.09C48.3035 14.09 47.5895 13.922 46.9535 13.586C46.3295 13.25 45.8255 12.764 45.4415 12.128V14H44.2175V0.643999H45.4955V6.332C45.8915 5.72 46.3955 5.258 47.0075 4.946C47.6315 4.622 48.3275 4.46 49.0955 4.46ZM49.0055 12.956C49.6655 12.956 50.2655 12.806 50.8055 12.506C51.3455 12.194 51.7655 11.756 52.0655 11.192C52.3775 10.628 52.5335 9.986 52.5335 9.266C52.5335 8.546 52.3775 7.904 52.0655 7.34C51.7655 6.776 51.3455 6.344 50.8055 6.044C50.2655 5.732 49.6655 5.576 49.0055 5.576C48.3335 5.576 47.7275 5.732 47.1875 6.044C46.6595 6.344 46.2395 6.776 45.9275 7.34C45.6275 7.904 45.4775 8.546 45.4775 9.266C45.4775 9.986 45.6275 10.628 45.9275 11.192C46.2395 11.756 46.6595 12.194 47.1875 12.506C47.7275 12.806 48.3335 12.956 49.0055 12.956ZM59.676 4.46C60.912 4.46 61.86 4.772 62.52 5.396C63.18 6.008 63.51 6.92 63.51 8.132V14H62.286V12.524C61.998 13.016 61.572 13.4 61.008 13.676C60.456 13.952 59.796 14.09 59.028 14.09C57.972 14.09 57.132 13.838 56.508 13.334C55.884 12.83 55.572 12.164 55.572 11.336C55.572 10.532 55.86 9.884 56.436 9.392C57.024 8.9 57.954 8.654 59.226 8.654H62.232V8.078C62.232 7.262 62.004 6.644 61.548 6.224C61.092 5.792 60.426 5.576 59.55 5.576C58.95 5.576 58.374 5.678 57.822 5.882C57.27 6.074 56.796 6.344 56.4 6.692L55.824 5.738C56.304 5.33 56.88 5.018 57.552 4.802C58.224 4.574 58.932 4.46 59.676 4.46ZM59.226 13.082C59.946 13.082 60.564 12.92 61.08 12.596C61.596 12.26 61.98 11.78 62.232 11.156V9.608H59.262C57.642 9.608 56.832 10.172 56.832 11.3C56.832 11.852 57.042 12.29 57.462 12.614C57.882 12.926 58.47 13.082 59.226 13.082ZM69.5192 14.09C68.7512 14.09 68.0132 13.982 67.3052 13.766C66.6092 13.538 66.0632 13.256 65.6672 12.92L66.2432 11.912C66.6392 12.224 67.1372 12.482 67.7372 12.686C68.3372 12.878 68.9612 12.974 69.6092 12.974C70.4732 12.974 71.1092 12.842 71.5172 12.578C71.9372 12.302 72.1472 11.918 72.1472 11.426C72.1472 11.078 72.0332 10.808 71.8052 10.616C71.5772 10.412 71.2892 10.262 70.9412 10.166C70.5932 10.058 70.1312 9.956 69.5552 9.86C68.7872 9.716 68.1692 9.572 67.7012 9.428C67.2332 9.272 66.8312 9.014 66.4952 8.654C66.1712 8.294 66.0092 7.796 66.0092 7.16C66.0092 6.368 66.3392 5.72 66.9992 5.216C67.6592 4.712 68.5772 4.46 69.7532 4.46C70.3652 4.46 70.9772 4.544 71.5892 4.712C72.2012 4.868 72.7052 5.078 73.1012 5.342L72.5432 6.368C71.7632 5.828 70.8332 5.558 69.7532 5.558C68.9372 5.558 68.3192 5.702 67.8992 5.99C67.4912 6.278 67.2872 6.656 67.2872 7.124C67.2872 7.484 67.4012 7.772 67.6292 7.988C67.8692 8.204 68.1632 8.366 68.5112 8.474C68.8592 8.57 69.3392 8.672 69.9512 8.78C70.7072 8.924 71.3132 9.068 71.7692 9.212C72.2252 9.356 72.6152 9.602 72.9392 9.95C73.2632 10.298 73.4252 10.778 73.4252 11.39C73.4252 12.218 73.0772 12.878 72.3812 13.37C71.6972 13.85 70.7432 14.09 69.5192 14.09ZM79.2979 9.248L77.0659 11.3V14H75.7879V0.643999H77.0659V9.698L82.7179 4.532H84.3019L80.2519 8.402L84.6799 14H83.1139L79.2979 9.248ZM94.4557 9.662H86.5357C86.6077 10.646 86.9857 11.444 87.6697 12.056C88.3537 12.656 89.2177 12.956 90.2617 12.956C90.8497 12.956 91.3897 12.854 91.8817 12.65C92.3737 12.434 92.7997 12.122 93.1597 11.714L93.8797 12.542C93.4597 13.046 92.9317 13.43 92.2957 13.694C91.6717 13.958 90.9817 14.09 90.2257 14.09C89.2537 14.09 88.3897 13.886 87.6337 13.478C86.8897 13.058 86.3077 12.482 85.8877 11.75C85.4677 11.018 85.2577 10.19 85.2577 9.266C85.2577 8.342 85.4557 7.514 85.8517 6.782C86.2597 6.05 86.8117 5.48 87.5077 5.072C88.2157 4.664 89.0077 4.46 89.8837 4.46C90.7597 4.46 91.5457 4.664 92.2417 5.072C92.9377 5.48 93.4837 6.05 93.8797 6.782C94.2757 7.502 94.4737 8.33 94.4737 9.266L94.4557 9.662ZM89.8837 5.558C88.9717 5.558 88.2037 5.852 87.5797 6.44C86.9677 7.016 86.6197 7.772 86.5357 8.708H93.2497C93.1657 7.772 92.8117 7.016 92.1877 6.44C91.5757 5.852 90.8077 5.558 89.8837 5.558ZM102.061 13.424C101.821 13.64 101.521 13.808 101.161 13.928C100.813 14.036 100.447 14.09 100.063 14.09C99.175 14.09 98.491 13.85 98.011 13.37C97.531 12.89 97.291 12.212 97.291 11.336V5.612H95.599V4.532H97.291V2.462H98.569V4.532H101.449V5.612H98.569V11.264C98.569 11.828 98.707 12.26 98.983 12.56C99.271 12.848 99.679 12.992 100.207 12.992C100.471 12.992 100.723 12.95 100.963 12.866C101.215 12.782 101.431 12.662 101.611 12.506L102.061 13.424ZM109.265 4.46C110.153 4.46 110.957 4.664 111.677 5.072C112.397 5.468 112.961 6.032 113.369 6.764C113.777 7.496 113.981 8.33 113.981 9.266C113.981 10.202 113.777 11.036 113.369 11.768C112.961 12.5 112.397 13.07 111.677 13.478C110.957 13.886 110.153 14.09 109.265 14.09C108.473 14.09 107.759 13.922 107.123 13.586C106.499 13.25 105.995 12.764 105.611 12.128V14H104.387V0.643999H105.665V6.332C106.061 5.72 106.565 5.258 107.177 4.946C107.801 4.622 108.497 4.46 109.265 4.46ZM109.175 12.956C109.835 12.956 110.435 12.806 110.975 12.506C111.515 12.194 111.935 11.756 112.235 11.192C112.547 10.628 112.703 9.986 112.703 9.266C112.703 8.546 112.547 7.904 112.235 7.34C111.935 6.776 111.515 6.344 110.975 6.044C110.435 5.732 109.835 5.576 109.175 5.576C108.503 5.576 107.897 5.732 107.357 6.044C106.829 6.344 106.409 6.776 106.097 7.34C105.797 7.904 105.647 8.546 105.647 9.266C105.647 9.986 105.797 10.628 106.097 11.192C106.409 11.756 106.829 12.194 107.357 12.506C107.897 12.806 108.503 12.956 109.175 12.956ZM119.846 4.46C121.082 4.46 122.03 4.772 122.69 5.396C123.35 6.008 123.68 6.92 123.68 8.132V14H122.456V12.524C122.168 13.016 121.742 13.4 121.178 13.676C120.626 13.952 119.966 14.09 119.198 14.09C118.142 14.09 117.302 13.838 116.678 13.334C116.054 12.83 115.742 12.164 115.742 11.336C115.742 10.532 116.03 9.884 116.606 9.392C117.194 8.9 118.124 8.654 119.396 8.654H122.402V8.078C122.402 7.262 122.174 6.644 121.718 6.224C121.262 5.792 120.596 5.576 119.72 5.576C119.12 5.576 118.544 5.678 117.992 5.882C117.44 6.074 116.966 6.344 116.57 6.692L115.994 5.738C116.474 5.33 117.05 5.018 117.722 4.802C118.394 4.574 119.102 4.46 119.846 4.46ZM119.396 13.082C120.116 13.082 120.734 12.92 121.25 12.596C121.766 12.26 122.15 11.78 122.402 11.156V9.608H119.432C117.812 9.608 117.002 10.172 117.002 11.3C117.002 11.852 117.212 12.29 117.632 12.614C118.052 12.926 118.64 13.082 119.396 13.082ZM127.151 0.643999H128.429V14H127.151V0.643999ZM131.985 0.643999H133.263V14H131.985V0.643999Z" fill="black" fill-opacity="0.2"/>
</svg>
