<svg width="60" height="64" viewBox="0 0 60 64" fill="none" xmlns="http://www.w3.org/2000/svg">
<rect width="59" height="52" rx="8" fill="black"/>
<path d="M24.465 14.5V39H22.33L6.58 19.12V39H3.99V14.5H6.125L21.91 34.38V14.5H24.465ZM47.8967 26.365C49.5067 26.715 50.7433 27.415 51.6067 28.465C52.4933 29.4917 52.9367 30.8217 52.9367 32.455C52.9367 34.555 52.155 36.1767 50.5917 37.32C49.0517 38.44 46.765 39 43.7317 39H32.4617V14.5H43.0317C45.7617 14.5 47.8733 15.0483 49.3667 16.145C50.8833 17.2417 51.6417 18.7933 51.6417 20.8C51.6417 22.1533 51.3033 23.3083 50.6267 24.265C49.9733 25.1983 49.0633 25.8983 47.8967 26.365ZM35.0517 16.635V25.525H42.8567C44.84 25.525 46.3683 25.1517 47.4417 24.405C48.515 23.635 49.0517 22.5267 49.0517 21.08C49.0517 19.6333 48.515 18.5367 47.4417 17.79C46.3683 17.02 44.84 16.635 42.8567 16.635H35.0517ZM43.6967 36.865C45.89 36.865 47.5467 36.4917 48.6667 35.745C49.7867 34.9983 50.3467 33.8317 50.3467 32.245C50.3467 29.1883 48.13 27.66 43.6967 27.66H35.0517V36.865H43.6967Z" fill="white"/>
</svg>
